<?xml version="1.0" encoding="utf-8"?>
<!-- Generator: Adobe Illustrator 18.0.0, SVG Export Plug-In . SVG Version: 6.00 Build 0)  -->
<!DOCTYPE svg PUBLIC "-//W3C//DTD SVG 1.1//EN" "http://www.w3.org/Graphics/SVG/1.1/DTD/svg11.dtd">
<svg version="1.1" id="Camada_1" xmlns="http://www.w3.org/2000/svg" xmlns:xlink="http://www.w3.org/1999/xlink" x="0px" y="0px"
	 viewBox="0 173.3 841.9 236.7" enable-background="new 0 173.3 841.9 236.7" xml:space="preserve">
<path fill="#1D1D1B" stroke="#FFFFFF" stroke-width="4" stroke-miterlimit="10" d="M59.6,193.5h17.5l28.7,77H88.3L82.7,253H53.3
	L47,270.5H30.2L59.6,193.5z M57.5,241.1h20.3L68,212.4l0,0L57.5,241.1z"/>
<path fill="#1D1D1B" stroke="#FFFFFF" stroke-width="4" stroke-miterlimit="10" d="M177.9,241.8c0,21-12.6,30.8-32.9,30.8
	c-21,0-32.9-9.8-32.9-30.8v-48.3h16.8v48.3c0,8.4,2.1,16.8,16.1,16.8c11.9,0,16.1-5.6,16.1-16.8v-48.3h16.8V241.8z"/>
<path fill="#1D1D1B" stroke="#FFFFFF" stroke-width="4" stroke-miterlimit="10" d="M209.4,208.2h-23.1v-14h63v14H227v63h-16.8v-63
	H209.4z"/>
<path fill="#1D1D1B" stroke="#FFFFFF" stroke-width="2" stroke-miterlimit="10" d="M293.5,191.4c23.8,0,37.8,18.2,37.8,40.6
	s-14,39.9-37.8,39.9s-37.8-18.2-37.8-39.9C255.7,209.6,269.7,191.4,293.5,191.4z M293.5,258.6c15.4,0,21-13.3,21-25.9
	c0-13.3-5.6-26.6-21-26.6s-21,13.3-21,26.6C272.5,245.3,278.1,258.6,293.5,258.6z"/>
<path fill="#1D1D1B" stroke="#FFFFFF" stroke-width="4" stroke-miterlimit="10" d="M373.3,193.5h58.1v14h-40.6v16.8h37.8v13.3h-37.8
	v18.9h42v14H374v-77H373.3z"/>
<path fill="#1D1D1B" stroke="#FFFFFF" stroke-width="4" stroke-miterlimit="10" d="M455.3,245.3c0,10.5,7.7,14,16.8,14
	c6.3,0,15.4-1.4,15.4-9.8s-11.9-9.8-23.1-12.6c-11.2-2.8-23.1-7.7-23.1-21.7c0-16.1,14.7-23.1,28.7-23.1c16.1,0,30.8,7,30.8,25.2
	H484c-0.7-9.1-7-11.9-15.4-11.9c-5.6,0-11.9,2.1-11.9,9.1c0,6.3,3.5,7,23.1,11.9c5.6,1.4,23.1,4.9,23.1,22.4
	c0,14-11.2,24.5-32.2,24.5c-16.8,0-32.9-8.4-32.9-27.3h17.5V245.3z"/>
<path fill="#1D1D1B" stroke="#FFFFFF" stroke-width="4" stroke-miterlimit="10" d="M565.2,219.4c-1.4-7.7-8.4-13.3-16.8-13.3
	c-15.4,0-21,13.3-21,26.6c0,12.6,5.6,25.9,21,25.9c10.5,0,16.1-7,17.5-17.5h16.8c-1.4,19.6-15.4,31.5-34.3,31.5
	c-23.8,0-37.8-18.2-37.8-39.9c0-23.1,14-40.6,37.8-40.6c16.8,0,31.5,9.8,33.6,28h-16.8V219.4z"/>
<path fill="#1D1D1B" stroke="#FFFFFF" stroke-width="2" stroke-miterlimit="10" d="M628.9,191.4c23.8,0,37.8,18.2,37.8,40.6
	s-14,39.9-37.8,39.9s-37.8-18.2-37.8-39.9C590.4,209.6,604.4,191.4,628.9,191.4z M628.9,258.6c15.4,0,21-13.3,21-25.9
	c0-13.3-5.6-26.6-21-26.6s-21,13.3-21,26.6C607.9,245.3,613.5,258.6,628.9,258.6z"/>
<path fill="#1D1D1B" stroke="#FFFFFF" stroke-width="4" stroke-miterlimit="10" d="M678.7,193.5h16.8v63h37.8v14h-54.6V193.5z"/>
<path fill="#1D1D1B" stroke="#FFFFFF" stroke-width="4" stroke-miterlimit="10" d="M767.6,193.5h17.5l28.7,77h-17.5l-5.6-17.5H762
	l-6.3,17.5h-17.5L767.6,193.5z M766.2,241.1h20.3l-9.8-28.7l0,0L766.2,241.1z"/>
<path fill="#1D1D1B" stroke="#FFFFFF" stroke-width="4" stroke-miterlimit="10" d="M97.4,323.8h42c14,0,22.4,9.8,22.4,21
	c0,9.1-3.5,16.1-11.9,19.6l0,0c8.4,2.1,10.5,10.5,11.2,18.2c0,4.9,0,14,3.5,18.2h-16.8c-2.1-4.9-2.1-12.6-2.8-18.2
	c-1.4-8.4-4.2-11.9-12.6-11.9h-16.8v30.1H98.8v-77H97.4z M114.2,358.8h18.9c7.7,0,11.9-3.5,11.9-11.2s-4.2-10.5-11.9-10.5h-18.9
	V358.8z"/>
<path fill="#1D1D1B" stroke="#FFFFFF" stroke-width="4" stroke-miterlimit="10" d="M175.8,323.8h16.8v77h-16.8V323.8z"/>
<path fill="#1D1D1B" stroke="#FFFFFF" stroke-width="2" stroke-miterlimit="10" d="M242.4,321.7c23.8,0,37.8,18.2,37.8,40.6
	s-14,39.9-37.8,39.9s-37.8-18.2-37.8-39.9C204.5,339.9,218.5,321.7,242.4,321.7z M242.4,388.2c15.4,0,21-13.3,21-25.9
	c0-13.3-5.6-26.6-21-26.6s-21,13.3-21,26.6S227,388.2,242.4,388.2z"/>
<path fill="#1D1D1B" stroke="#FFFFFF" stroke-width="4" stroke-miterlimit="10" d="M378.2,392.4c-6.3,7.7-14,10.5-21,10.5
	c-23.8,0-37.8-18.2-37.8-39.9c0-23.1,14-40.6,37.8-40.6c16.1,0,30.8,9.8,32.9,27.3H374c-2.1-8.4-8.4-13.3-16.1-13.3
	c-15.4,0-21,13.3-21,26.6c0,12.6,5.6,25.9,21,25.9c11.2,0,17.5-6.3,18.2-16.8h-16.8v-12.6h32.2v42H381L378.2,392.4z"/>
<path fill="#1D1D1B" stroke="#FFFFFF" stroke-width="4" stroke-miterlimit="10" d="M404.1,323.8h42c14,0,22.4,9.8,22.4,21
	c0,9.1-3.5,16.1-11.9,19.6l0,0c8.4,2.1,10.5,10.5,11.2,18.2c0,4.9,0,14,3.5,18.2h-16.8c-2.1-4.9-2.1-12.6-2.8-18.2
	c-1.4-8.4-4.2-11.9-12.6-11.9h-16.8v30.1h-16.8v-77H404.1z M421.6,358.8h18.9c7.7,0,11.9-3.5,11.9-11.2s-4.2-10.5-11.9-10.5h-18.9
	V358.8z"/>
<path fill="#1D1D1B" stroke="#FFFFFF" stroke-width="4" stroke-miterlimit="10" d="M503.6,323.8h17.5l28.7,77h-17.5l-5.6-17.5H498
	l-6.3,17.5h-17.5L503.6,323.8z M502.2,371.4h20.3l-9.8-28.7l0,0L502.2,371.4z"/>
<path fill="#1D1D1B" stroke="#FFFFFF" stroke-width="4" stroke-miterlimit="10" d="M556.8,323.8h16.8l32.2,51.8l0,0v-51.8h16.1v77
	h-16.8L572.9,349l0,0v51.8h-16.1V323.8z"/>
<path fill="#1D1D1B" stroke="#FFFFFF" stroke-width="4" stroke-miterlimit="10" d="M637.3,323.8H671c20.3,0,35,12.6,35,38.5
	c0,22.4-11.2,39.2-35,39.2h-33.6V323.8z M654.2,386.8h15.4c9.8,0,19.6-6.3,19.6-23.1c0-15.4-5.6-25.9-22.4-25.9h-12.6V386.8z"/>
<path fill="#1D1D1B" stroke="#FFFFFF" stroke-width="4" stroke-miterlimit="10" d="M717.2,323.8h58.1v14h-40.6v16.8h37.8v13.3h-37.8
	v18.9h42v14h-59.5V323.8z"/>
<g>
	<circle fill="#E63A20" cx="242.4" cy="361.6" r="43.4"/>
	<circle fill="#F5F5F5" cx="243.1" cy="361.6" r="36.4"/>
	<polygon fill="#1D1D1B" points="254.3,382.6 245.2,365.1 250.8,367.2 250.8,338.5 257.1,338.5 257.1,367.2 262.7,365.1 	"/>
	<polygon fill="#1D1D1B" points="231.2,338.5 222.1,355.3 227.7,353.9 227.7,382.6 234.7,382.6 234.7,353.9 240.3,355.3 	"/>
</g>
<circle fill="#E63A20" cx="294.2" cy="232" r="43.4"/>
<circle fill="#F5F5F5" cx="294.2" cy="232" r="36.4"/>
<circle fill="#E63A20" cx="628.2" cy="232" r="43.4"/>
<circle fill="#F5F5F5" cx="628.2" cy="232" r="36.4"/>
<polygon fill="#1D1D1B" points="656.3,232.7 635.9,222.2 638,229.2 604.4,229.2 604.4,236.9 638,236.9 635.9,243.2 "/>
<path d="M275.3,249.5c0-1.4,0-3.5,0-4.9c0-5.6,0-10.5,0-16.1c0-3.5,1.4-4.2,4.2-4.2c6.3,0,11.9,0,18.2,0c0.7,0,1.4,0,2.1,0
	c0-2.8-0.7-4.9-0.7-7l0.7-0.7c6.3,2.8,11.9,7,18.2,11.2c-2.1,1.4-2.8,2.8-4.9,3.5c-4.2,2.8-7.7,4.9-11.9,7.7
	c-1.4,1.4-2.1,0.7-2.1-1.4s0.7-3.5,0.7-5.6c-5.6,0-11.9,0-17.5,0c0,5.6,0,11.9,0,18.2C280.2,249.5,278.1,249.5,275.3,249.5z"/>
</svg>
